<?xml version="1.0" encoding="utf-8" ?>
<svg xmlns="http://www.w3.org/2000/svg" xmlns:ev="http://www.w3.org/2001/xml-events" xmlns:xlink="http://www.w3.org/1999/xlink" baseProfile="full" height="250" version="1.1" width="500">
  <defs>
    <style type="text/css"><![CDATA[.background path {fill: #808080; fill-opacity: 0}.background path:nth-child(odd) {fill-opacity: .1}.axes {font-size: 14px}.x-axis .tick .lab {font-weight: bold; dominant-baseline: hanging}.axes, .tree {font-size: 14px; text-anchor: middle}.axes line, .edge {stroke: black; fill: none}.axes .ax-skip {stroke-dasharray: 4}.y-axis .grid {stroke: #FAFAFA}.node > .sym {fill: black; stroke: none}.site > .sym {stroke: black}.mut text {fill: red; font-style: italic}.mut.extra text {fill: hotpink}.mut line {fill: none; stroke: none}.mut .sym {fill: none; stroke: red}.mut.extra .sym {stroke: hotpink}.node .mut .sym {stroke-width: 1.5px}.tree text, .tree-sequence text {dominant-baseline: central}.plotbox .lab.lft {text-anchor: end}.plotbox .lab.rgt {text-anchor: start}]]></style>
  </defs>
  <g class="tree-sequence">
    <g class="axes">
      <g class="x-axis">
        <g class="title" transform="translate(268.4 250)">
          <text class="lab" text-anchor="middle" transform="translate(0 -11)">Genome position</text>
        </g>
        <line class="ax-line" x1="56.8" x2="480" y1="213.2" y2="213.2"/>
        <g class="ticks">
          <g class="tick" transform="translate(56.8 213.2)">
            <line x1="0" x2="0" y1="-5" y2="5"/>
            <g transform="translate(0 6)">
              <text class="lab">0</text>
            </g>
          </g>
          <g class="tick" transform="translate(268.4 213.2)">
            <line x1="0" x2="0" y1="-5" y2="5"/>
            <g transform="translate(0 6)">
              <text class="lab">47</text>
            </g>
          </g>
          <g class="tick" transform="translate(480 213.2)">
            <line x1="0" x2="0" y1="-5" y2="5"/>
            <g transform="translate(0 6)">
              <text class="lab">200</text>
            </g>
          </g>
        </g>
      </g>
      <g class="y-axis">
        <g class="title" transform="translate(0 90.7)">
          <text class="lab" text-anchor="middle" transform="translate(11) rotate(-90)"> </text>
        </g>
        <line class="ax-line" x1="56.8" x2="56.8" y1="171.4" y2="10"/>
        <g class="ticks">
          <g class="tick" transform="translate(56.8 171.4)">
            <line x1="0" x2="-5" y1="0" y2="0"/>
            <g transform="translate(-6 0)">
              <text class="lab" text-anchor="end">0.00</text>
            </g>
          </g>
          <g class="tick" transform="translate(56.8 135.25)">
            <line x1="0" x2="-5" y1="0" y2="0"/>
            <g transform="translate(-6 0)">
              <text class="lab" text-anchor="end">10400.98</text>
            </g>
          </g>
          <g class="tick" transform="translate(56.8 99.1)">
            <line x1="0" x2="-5" y1="0" y2="0"/>
            <g transform="translate(-6 0)">
              <text class="lab" text-anchor="end">87564.35</text>
            </g>
          </g>
          <g class="tick" transform="translate(56.8 62.95)">
            <line x1="0" x2="-5" y1="0" y2="0"/>
            <g transform="translate(-6 0)">
              <text class="lab" text-anchor="end">96106.40</text>
            </g>
          </g>
          <g class="tick" transform="translate(56.8 26.8)">
            <line x1="0" x2="-5" y1="0" y2="0"/>
            <g transform="translate(-6 0)">
              <text class="lab" text-anchor="end">115695.67</text>
            </g>
          </g>
        </g>
      </g>
    </g>
    <g class="plotbox trees">
      <g class="tree t0" transform="translate(56.8 0)">
        <g class="plotbox">
          <g class="c2 node n7 p0 root" transform="translate(89.7125 26.8)">
            <g class="a7 i0 leaf node n0 p0 sample" transform="translate(-48.2625 144.6)">
              <path class="edge" d="M 0 0 V -144.6 H 48.2625"/>
              <rect class="sym" height="6" width="6" x="-3" y="-3"/>
              <text class="lab" transform="translate(0 11)">0</text>
            </g>
            <g class="a7 c2 m0 m1 node n5 p0 s0 s1" transform="translate(48.2625 72.3)">
              <g class="a5 i3 leaf node n3 p0 sample" transform="translate(32.175 72.3)">
                <path class="edge" d="M 0 0 V -72.3 H -32.175"/>
                <rect class="sym" height="6" width="6" x="-3" y="-3"/>
                <text class="lab" transform="translate(0 11)">3</text>
              </g>
              <g class="a5 c2 node n4 p0" transform="translate(-32.175 36.15)">
                <g class="a4 i1 leaf node n1 p0 sample" transform="translate(-21.45 36.15)">
                  <path class="edge" d="M 0 0 V -36.15 H 21.45"/>
                  <rect class="sym" height="6" width="6" x="-3" y="-3"/>
                  <text class="lab" transform="translate(0 11)">1</text>
                </g>
                <g class="a4 i2 leaf node n2 p0 sample" transform="translate(21.45 36.15)">
                  <path class="edge" d="M 0 0 V -36.15 H -21.45"/>
                  <rect class="sym" height="6" width="6" x="-3" y="-3"/>
                  <text class="lab" transform="translate(0 11)">2</text>
                </g>
                <path class="edge" d="M 0 0 V -36.15 H 32.175"/>
                <circle class="sym" cx="0" cy="0" r="3"/>
                <text class="lab lft" transform="translate(-3 -7.0)">4</text>
              </g>
              <path class="edge" d="M 0 0 V -72.3 H -48.2625"/>
              <g class="mut m0 s0" transform="translate(0 -48.2)">
                <line x1="0" x2="0" y1="0" y2="48.2"/>
                <path class="sym" d="M -3,-3 l 6,6 M -3,3 l 6,-6"/>
                <text class="lab rgt" transform="translate(5 0)">0</text>
              </g>
              <g class="mut m1 s1" transform="translate(0 -24.1)">
                <line x1="0" x2="0" y1="0" y2="24.1"/>
                <path class="sym" d="M -3,-3 l 6,6 M -3,3 l 6,-6"/>
                <text class="lab rgt" transform="translate(5 0)">1</text>
              </g>
              <circle class="sym" cx="0" cy="0" r="3"/>
              <text class="lab rgt" transform="translate(3 -7.0)">5</text>
            </g>
            <circle class="sym" cx="0" cy="0" r="3"/>
            <text class="lab" transform="translate(0 -11)">7</text>
          </g>
        </g>
      </g>
      <g class="tree t1" transform="translate(268.4 0)">
        <g class="plotbox">
          <g class="c2 node n7 p0 root" transform="translate(105.8 26.8)">
            <g class="a7 c2 m3 m4 node n4 p0 s3 s4" transform="translate(42.9 108.45)">
              <g class="a4 i1 leaf m2 node n1 p0 s2 sample" transform="translate(-21.45 36.15)">
                <path class="edge" d="M 0 0 V -36.15 H 21.45"/>
                <g class="mut m2 s2" transform="translate(0 -18.075)">
                  <line x1="0" x2="0" y1="0" y2="18.075"/>
                  <path class="sym" d="M -3,-3 l 6,6 M -3,3 l 6,-6"/>
                  <text class="lab lft" transform="translate(-5 0)">2</text>
                </g>
                <rect class="sym" height="6" width="6" x="-3" y="-3"/>
                <text class="lab" transform="translate(0 11)">1</text>
              </g>
              <g class="a4 i2 leaf node n2 p0 sample" transform="translate(21.45 36.15)">
                <path class="edge" d="M 0 0 V -36.15 H -21.45"/>
                <rect class="sym" height="6" width="6" x="-3" y="-3"/>
                <text class="lab" transform="translate(0 11)">2</text>
              </g>
              <path class="edge" d="M 0 0 V -108.45 H -42.9"/>
              <g class="mut m3 s3" transform="translate(0 -72.3)">
                <line x1="0" x2="0" y1="0" y2="72.3"/>
                <path class="sym" d="M -3,-3 l 6,6 M -3,3 l 6,-6"/>
                <text class="lab rgt" transform="translate(5 0)">3</text>
              </g>
              <g class="mut m4 s4" transform="translate(0 -36.15)">
                <line x1="0" x2="0" y1="0" y2="36.15"/>
                <path class="sym" d="M -3,-3 l 6,6 M -3,3 l 6,-6"/>
                <text class="lab rgt" transform="translate(5 0)">4</text>
              </g>
              <circle class="sym" cx="0" cy="0" r="3"/>
              <text class="lab rgt" transform="translate(3 -7.0)">4</text>
            </g>
            <g class="a7 c2 node n6 p0" transform="translate(-42.9 36.15)">
              <g class="a6 i0 leaf node n0 p0 sample" transform="translate(-21.45 108.45)">
                <path class="edge" d="M 0 0 V -108.45 H 21.45"/>
                <rect class="sym" height="6" width="6" x="-3" y="-3"/>
                <text class="lab" transform="translate(0 11)">0</text>
              </g>
              <g class="a6 i3 leaf node n3 p0 sample" transform="translate(21.45 108.45)">
                <path class="edge" d="M 0 0 V -108.45 H -21.45"/>
                <rect class="sym" height="6" width="6" x="-3" y="-3"/>
                <text class="lab" transform="translate(0 11)">3</text>
              </g>
              <path class="edge" d="M 0 0 V -36.15 H 42.9"/>
              <circle class="sym" cx="0" cy="0" r="3"/>
              <text class="lab lft" transform="translate(-3 -7.0)">6</text>
            </g>
            <circle class="sym" cx="0" cy="0" r="3"/>
            <text class="lab" transform="translate(0 -11)">7</text>
          </g>
        </g>
      </g>
    </g>
  </g>
</svg>
